<?xml version="1.0" encoding="utf-8"?>
<!-- Generator: Adobe Illustrator 21.0.2, SVG Export Plug-In . SVG Version: 6.00 Build 0)  -->
<svg version="1.1" id="Ebene_1" xmlns="http://www.w3.org/2000/svg" xmlns:xlink="http://www.w3.org/1999/xlink" x="0px" y="0px"
	 viewBox="0 0 139.4 87.8" style="enable-background:new 0 0 139.4 87.8;" xml:space="preserve">
<style type="text/css">
	.st0{fill:#BCD24E;}
</style>
<g>
	<path class="st0" d="M139.4,72.1c0-0.2-0.1-0.3-0.2-0.3h-1c-0.1,0-0.1,0-0.2,0.1c0,0,0,0.1,0,0.2l0,15.2c0,0.1,0,0.2,0.1,0.2
		c0,0,0.1,0.1,0.2,0.1h0.8c0.1,0,0.2,0,0.3-0.1c0,0,0.1-0.1,0.1-0.3V72.1z M126.5,81.3c0-0.7,0.1-1.3,0.4-2c0.3-0.6,0.7-1.1,1.3-1.5
		c0.6-0.4,1.3-0.6,2.1-0.6c0.7,0,1.3,0.2,1.9,0.5c0.5,0.3,0.9,0.8,1.2,1.4s0.4,1.2,0.4,1.9c0,0.1,0,0.2-0.1,0.2s-0.1,0.1-0.3,0.1
		H126.5z M126.5,82.6c0-0.2,0-0.3,0.1-0.3h8.4c0.1,0,0.2,0,0.2-0.1c0-0.1,0.1-0.1,0.1-0.2v-0.1c0-1.8-0.4-3.2-1.3-4.2
		c-0.9-1-2.1-1.5-3.7-1.5c-1,0-1.9,0.2-2.7,0.7c-0.8,0.5-1.4,1.2-1.9,2.1c-0.5,0.9-0.7,1.9-0.7,3.1c0,1.1,0.2,2.1,0.7,3
		c0.5,0.9,1.1,1.5,1.9,2c0.8,0.5,1.7,0.7,2.7,0.7c1,0,1.9-0.2,2.7-0.6c0.7-0.4,1.4-1,1.9-1.8c0-0.1,0.1-0.1,0.1-0.1
		c0,0,0-0.1-0.1-0.1l-0.7-0.4c-0.1,0-0.1,0-0.1,0c0,0-0.1,0-0.1,0.1c-0.8,1.2-1.9,1.8-3.5,1.8c-0.7,0-1.4-0.2-2-0.6
		c-0.6-0.4-1.1-0.9-1.4-1.5C126.6,84,126.5,83.3,126.5,82.6 M113.7,87.6h0.9c0.2,0,0.3-0.1,0.3-0.3v-8.2c0.8-0.7,1.5-1.1,2-1.4
		c0.5-0.3,1.1-0.4,1.8-0.4c1.6,0,2.4,0.8,2.4,2.4v7.6c0,0.2,0.1,0.3,0.3,0.3h0.9c0.2,0,0.3-0.1,0.3-0.3v-8c0-1-0.3-1.7-0.9-2.3
		c-0.6-0.6-1.4-0.9-2.5-0.9c-0.7,0-1.3,0.1-1.9,0.4c-0.6,0.3-1.3,0.7-2.1,1.3c-0.1,0.1-0.2,0.1-0.2-0.1v-5.7c0-0.1-0.1-0.2-0.2-0.2
		h-0.9c-0.1,0-0.2,0.1-0.2,0.2v15.2C113.4,87.5,113.5,87.6,113.7,87.6 M106.5,76.2c-1,0-1.9,0.3-2.7,0.8c-0.8,0.5-1.4,1.2-1.9,2.1
		c-0.4,0.9-0.7,1.9-0.7,3c0,1.1,0.2,2.1,0.7,3c0.4,0.9,1.1,1.6,1.8,2c0.8,0.5,1.7,0.7,2.7,0.7c1,0,1.9-0.2,2.6-0.7
		c0.8-0.5,1.4-1.1,1.8-1.9c0-0.1,0-0.2-0.1-0.3l-0.7-0.3c-0.1-0.1-0.2,0-0.3,0.1c-0.4,0.7-0.9,1.2-1.4,1.5c-0.5,0.3-1.1,0.5-1.8,0.5
		c-1.2,0-2.1-0.4-2.8-1.3c-0.7-0.9-1.1-2-1.1-3.4c0-1.4,0.4-2.6,1.1-3.4c0.7-0.9,1.6-1.3,2.8-1.3c0.6,0,1.1,0.1,1.5,0.4
		c0.5,0.3,0.9,0.8,1.5,1.4c0.1,0.1,0.1,0.1,0.2,0.1c0,0,0.1,0,0.1,0l0.9-0.3c0.1,0,0.1-0.1,0.1-0.1c0,0,0-0.1-0.1-0.2
		C109.8,77,108.3,76.2,106.5,76.2 M98.5,76.6c0-0.1,0-0.2-0.1-0.2c0,0-0.1-0.1-0.2-0.1h-0.9c-0.1,0-0.1,0-0.2,0.1
		c0,0-0.1,0.1-0.1,0.2v10.7c0,0.1,0,0.2,0.1,0.2c0,0,0.1,0.1,0.2,0.1h0.8c0.1,0,0.2,0,0.3-0.1s0.1-0.1,0.1-0.3V76.6z M98.5,72.2
		c0-0.2-0.1-0.3-0.3-0.3h-1c-0.2,0-0.3,0.1-0.3,0.3v1.7c0,0.1,0,0.2,0.1,0.3c0,0.1,0.1,0.1,0.2,0.1h1c0.1,0,0.2,0,0.3-0.1
		c0-0.1,0.1-0.2,0.1-0.3V72.2z M78.2,87.6h0.9c0.2,0,0.3-0.1,0.3-0.3v-8.2c0.8-0.7,1.4-1.1,1.9-1.4c0.5-0.3,1.1-0.4,1.7-0.4
		c1.5,0,2.2,0.8,2.2,2.4v7.6c0,0.2,0.1,0.3,0.3,0.3h0.9c0.2,0,0.3-0.1,0.3-0.3v-7.8c0-0.1,0-0.2,0.1-0.3c0-0.1,0.1-0.2,0.3-0.3
		c0.5-0.4,1-0.8,1.6-1.1c0.5-0.3,1.1-0.4,1.7-0.4c1.5,0,2.2,0.8,2.2,2.4v7.6c0,0.1,0,0.2,0.1,0.2c0,0,0.1,0.1,0.2,0.1h0.9
		c0.2,0,0.3-0.1,0.3-0.3v-8c0-1-0.3-1.7-0.8-2.3c-0.6-0.6-1.4-0.9-2.4-0.9c-0.7,0-1.3,0.1-1.9,0.4c-0.6,0.3-1.2,0.7-2,1.4
		c-0.1,0.1-0.2,0.1-0.2,0.1c0,0-0.1,0-0.1-0.1c-0.2-0.5-0.5-0.9-1-1.3c-0.5-0.4-1.2-0.5-2-0.5c-0.7,0-1.3,0.1-1.8,0.4
		c-0.5,0.3-1.2,0.7-2,1.3c-0.1,0.1-0.2,0.1-0.2-0.1v-1.2c0-0.1-0.1-0.2-0.2-0.2h-0.9c-0.1,0-0.2,0.1-0.2,0.2v10.7
		C77.9,87.5,78,87.6,78.2,87.6 M69.2,87.6h1.9c0.3,0,0.5-0.1,0.5-0.4v-6.5c0-0.3,0.1-0.7,0.4-1c0.3-0.3,0.6-0.6,1-0.8
		c0.4-0.2,0.8-0.3,1.2-0.3c0.5,0,0.9,0,1.3,0.1c0.2,0,0.3-0.1,0.3-0.3v-2c0-0.2-0.3-0.3-0.8-0.3c-0.5,0-1.1,0.2-1.7,0.5
		c-0.6,0.3-1.1,0.8-1.5,1.4c-0.1,0.1-0.1,0.1-0.2,0.1c-0.1,0-0.1-0.1-0.1-0.2v-1.3c0-0.2-0.1-0.3-0.3-0.3h-2.1
		c-0.2,0-0.3,0.1-0.3,0.4v10.5C68.8,87.5,68.9,87.6,69.2,87.6 M58.8,80.9c0-0.9,0.2-1.6,0.8-2.2c0.5-0.6,1.2-0.9,2-0.9
		c0.5,0,1,0.1,1.4,0.4c0.4,0.3,0.7,0.6,0.9,1c0.2,0.4,0.3,0.9,0.3,1.3c0,0.1,0,0.2-0.1,0.2c0,0-0.1,0.1-0.3,0.1H58.8z M58.7,82.8
		c0-0.2,0.1-0.3,0.2-0.3h7.5c0.1,0,0.2,0,0.3-0.1s0.1-0.2,0.1-0.3V82c0-1.2-0.2-2.3-0.7-3.1c-0.4-0.9-1.1-1.6-1.9-2
		c-0.8-0.5-1.7-0.7-2.8-0.7c-1,0-2,0.2-2.8,0.7c-0.8,0.5-1.5,1.2-2,2.1c-0.5,0.9-0.7,1.9-0.7,3.1c0,1.1,0.2,2.1,0.7,2.9
		c0.5,0.9,1.1,1.5,2,2c0.9,0.5,1.8,0.7,2.9,0.7c1.1,0,2.1-0.2,2.8-0.6c0.8-0.4,1.5-1,2.1-2c0.1-0.1,0.1-0.1,0.1-0.2
		c0-0.1,0-0.1-0.1-0.2l-1.3-0.6c-0.1,0-0.1-0.1-0.2-0.1s-0.1,0-0.2,0.1c-0.4,0.5-0.9,0.9-1.3,1.2c-0.5,0.2-1,0.4-1.6,0.4
		c-0.6,0-1.1-0.1-1.6-0.4c-0.5-0.3-0.8-0.6-1.1-1.1C58.9,83.9,58.7,83.4,58.7,82.8 M54.5,78.3c0.2,0,0.4-0.1,0.4-0.3v-1.3
		c0-0.2-0.1-0.3-0.3-0.3h-2.4c-0.1,0-0.2-0.1-0.2-0.2v-3.2c0-0.1,0-0.2-0.1-0.3c-0.1-0.1-0.1-0.1-0.2-0.1h-1.9c-0.1,0-0.2,0-0.2,0.1
		c0,0-0.1,0.1-0.1,0.3l-0.3,3.3c0,0.1-0.1,0.2-0.2,0.2h-1.6c-0.2,0-0.3,0.1-0.3,0.3V78c0,0.2,0.1,0.3,0.3,0.3h1.4
		c0.2,0,0.3,0.1,0.3,0.3v6.3c0,0.9,0.3,1.6,0.8,2c0.5,0.4,1.2,0.7,2.2,0.7c1,0,1.8,0,2.3-0.1c0.3,0,0.4-0.2,0.4-0.4l0-1.1
		c0-0.1,0-0.2-0.1-0.2c-0.1-0.1-0.1-0.1-0.2-0.1h-1.2c-0.5,0-0.9-0.1-1.1-0.3c-0.2-0.2-0.3-0.6-0.3-1.1v-5.7c0-0.2,0.1-0.2,0.2-0.2
		H54.5z M39.8,85.8c-0.5,0-0.9-0.2-1.2-0.5c-0.3-0.3-0.5-0.8-0.5-1.3v-7.2c0-0.1,0-0.2-0.1-0.3c-0.1-0.1-0.1-0.1-0.3-0.1h-1.9
		c-0.3,0-0.4,0.1-0.4,0.4v7.6c0,1,0.3,1.8,0.9,2.4c0.6,0.6,1.4,0.9,2.4,0.9c0.7,0,1.3-0.1,1.9-0.4c0.6-0.3,1.2-0.7,1.9-1.3
		c0.1-0.1,0.1-0.1,0.1-0.1c0,0,0.1,0.1,0.1,0.1v1.1c0,0.2,0.1,0.3,0.3,0.3H45c0.2,0,0.3-0.1,0.3-0.3l0-10.5c0-0.3-0.1-0.4-0.4-0.4
		H43c-0.3,0-0.5,0.1-0.5,0.4v7.5C41.6,85.3,40.7,85.8,39.8,85.8 M31.5,72.2c0-0.2-0.1-0.3-0.3-0.3h-1.9c-0.2,0-0.3,0.1-0.3,0.3v1.9
		c0,0.1,0,0.2,0.1,0.3c0,0,0.1,0.1,0.3,0.1h1.7c0.2,0,0.3,0,0.4-0.1c0.1-0.1,0.1-0.2,0.1-0.3V72.2z M27.6,72.2
		c0-0.2-0.1-0.3-0.3-0.3h-1.9c-0.2,0-0.3,0.1-0.3,0.3v1.9c0,0.1,0,0.2,0.1,0.3c0,0.1,0.1,0.1,0.3,0.1h1.7c0.2,0,0.3,0,0.3-0.1
		c0.1-0.1,0.1-0.2,0.1-0.3V72.2z M30.4,82.5V84c0,0.4-0.3,0.9-0.8,1.3c-0.6,0.5-1.2,0.7-1.9,0.7c-0.6,0-1-0.1-1.4-0.4
		c-0.3-0.3-0.5-0.7-0.5-1.1c0-0.7,0.3-1.2,1-1.5c0.7-0.4,1.5-0.6,2.5-0.7l0.9-0.1c0.1,0,0.2,0,0.2,0.1
		C30.3,82.2,30.4,82.3,30.4,82.5 M30,86.4c0.1-0.1,0.2-0.2,0.3-0.2c0.1,0,0.1,0.1,0.1,0.2l0,0.6c0,0.2,0.1,0.3,0.1,0.4
		c0.1,0.1,0.1,0.1,0.3,0.1h1.8c0.1,0,0.2,0,0.3-0.1c0-0.1,0.1-0.2,0.1-0.3v-7.5c0-1.1-0.4-2-1.1-2.6c-0.7-0.6-1.9-0.9-3.5-0.9
		c-1.2,0-2.2,0.2-3.1,0.6c-0.8,0.4-1.4,1-1.8,1.8c-0.1,0.1-0.1,0.2-0.1,0.3c0,0.1,0.1,0.2,0.2,0.2l1.8,0.4c0,0,0.1,0,0.2,0
		c0.1,0,0.1,0,0.1-0.1c0,0,0.1-0.1,0.1-0.1c0.6-0.9,1.4-1.4,2.5-1.4c0.6,0,1.2,0.2,1.5,0.5s0.6,0.8,0.6,1.5v0.5
		c0,0.2-0.1,0.3-0.3,0.3L29,80.8c-1.9,0.1-3.3,0.5-4.4,1.1c-1,0.7-1.6,1.6-1.6,2.8c0,0.9,0.3,1.7,0.9,2.2c0.6,0.6,1.5,0.9,2.6,0.9
		C27.8,87.8,29,87.3,30,86.4 M15.5,87.6h1.9c0.3,0,0.5-0.1,0.5-0.4v-6.5c0-0.3,0.1-0.7,0.4-1c0.3-0.3,0.6-0.6,1-0.8
		c0.4-0.2,0.8-0.3,1.2-0.3c0.5,0,0.9,0,1.3,0.1c0.2,0,0.3-0.1,0.3-0.3v-2c0-0.2-0.3-0.3-0.8-0.3c-0.5,0-1.1,0.2-1.7,0.5
		C19,77,18.5,77.4,18,78c-0.1,0.1-0.1,0.1-0.2,0.1c-0.1,0-0.1-0.1-0.1-0.2v-1.3c0-0.2-0.1-0.3-0.3-0.3h-2.1c-0.2,0-0.3,0.1-0.3,0.4
		v10.5C15.1,87.5,15.2,87.6,15.5,87.6 M13,87.1l-5.2-9.4c0-0.1-0.1-0.2-0.1-0.2c0-0.1,0-0.1,0.1-0.2l4.4-5c0.1-0.1,0.1-0.1,0.1-0.2
		c0-0.1,0-0.1-0.1-0.2c-0.1,0-0.2-0.1-0.3-0.1H9.7c-0.2,0-0.3,0-0.4,0.1c-0.1,0-0.2,0.1-0.2,0.2l-5.8,6.9c-0.1,0.1-0.1,0.1-0.1,0.1
		c-0.1,0-0.1-0.1-0.1-0.2v-6.8c0-0.2-0.1-0.3-0.3-0.3H0.3c-0.1,0-0.2,0-0.2,0.1C0,72,0,72.1,0,72.2v15c0,0.1,0,0.2,0.1,0.3
		c0.1,0.1,0.2,0.1,0.3,0.1h2.2c0.3,0,0.5-0.1,0.5-0.4v-4c0-0.2,0-0.3,0.1-0.4l2.1-2.4c0.1-0.1,0.2-0.2,0.2-0.2c0.1,0,0.1,0,0.1,0.1
		l3.9,7.1c0.1,0.2,0.3,0.3,0.5,0.3h2.7c0.2,0,0.3-0.1,0.3-0.2C13,87.3,13,87.2,13,87.1"/>
	<path class="st0" d="M86,52.3c-6,7.2-16.2,6.7-19.2,6.1l3.7-13.7l0,0L90.4,39C90.2,44.5,88.8,49,86,52.3 M52.3,43.3
		c-0.5-2.8-0.2-5.9,0.8-9l15.1,15.4l-2.3,8.5C63,57.2,53.9,52.5,52.3,43.3 M62.3,19.9l9.2,17.6l-3,11.2l-15-15.3
		C55,29.1,58,24.6,62.3,19.9 M80.3,4.5l-8.5,31.8l-8.9-17C67.4,14.5,73.2,9.5,80.3,4.5 M86.8,18.9l-11.1,6.1l5.5-20.4
		C83.5,9.8,85.4,14.5,86.8,18.9 M90.4,38l-19.7,5.7l4.7-17.5l11.7-6.5C89.3,26.7,90.4,32.8,90.4,38 M95.8,37.4l-0.2-0.9l-4.2,1.2
		c0-5.3-1.2-11.4-3.4-18.4l7.5-4.2L95,14.4l-7.4,4.1c-1.6-4.7-3.6-9.7-6.1-15.1l0.8-3.1L81.5,0l-0.8,3.1
		c-7.5,5.3-13.6,10.3-18.2,15.2L61,15.4l-0.8,0.4l1.6,3.2c-4.4,4.7-7.4,9.2-9.1,13.6l-5.2-5.3l-0.6,0.6l5.5,5.6
		c-1.2,3.4-1.5,6.7-0.9,9.9c1.7,9.7,11.2,14.6,14.2,15.6l-1.5,5.5l0.9,0.2l1.5-5.5c3.2,0.6,13.8,1.1,20.1-6.4
		c3-3.6,4.5-8.3,4.7-14.2L95.8,37.4z"/>
</g>
</svg>
