<?xml version="1.0" encoding="utf-8"?>
<!-- Generator: Adobe Illustrator 22.1.0, SVG Export Plug-In . SVG Version: 6.00 Build 0)  -->
<svg version="1.1" id="Ebene_1" xmlns="http://www.w3.org/2000/svg" xmlns:xlink="http://www.w3.org/1999/xlink" x="0px" y="0px"
	 viewBox="0 0 70 70" style="enable-background:new 0 0 70 70;" xml:space="preserve">
<style type="text/css">
	.st0{fill:#9BC43D;}
</style>
<g>
	<path class="st0" d="M12.7,47.2c1.8,10.3,11.9,15.5,15.2,16.6l2.6-9.5L13.6,37.2C12.5,40.7,12.2,44.1,12.7,47.2z"/>
	<path class="st0" d="M44,3.9c-7.9,5.6-14.4,11.2-19.4,16.5l9.9,19L44,3.9z"/>
	<path class="st0" d="M14.1,36.2l16.7,17.1l3.3-12.5L23.9,21.1C19.1,26.4,15.8,31.4,14.1,36.2z"/>
	<path class="st0" d="M50.3,57.3c3.1-3.7,4.7-8.7,4.9-14.8l-22.2,6.4l-4.1,15.3C32.3,64.7,43.7,65.3,50.3,57.3z"/>
	<path class="st0" d="M27.7,64.7c-3.5-1.1-14.1-6.6-16-17.4c-0.6-3.5-0.2-7.1,1.1-11L6.7,30l0.6-0.7l5.8,5.9
		c1.9-4.9,5.2-9.9,10.2-15.2l-1.8-3.6l0.9-0.4l1.8,3.2c5.1-5.5,11.9-11,20.3-17l0.3-1C41.6,0.5,38.4,0,35,0C15.7,0,0,15.7,0,35
		c0,16.4,11.3,30.2,26.5,34L27.7,64.7z"/>
	<path class="st0" d="M45.7,1.7l-0.2,0.9c2.8,6,5,11.6,6.8,16.8l8.3-4.6l0.4,0.9l-8.4,4.7c2.5,7.8,3.8,14.6,3.8,20.5l4.7-1.3l0.2,1
		L56.4,42c-0.2,6.6-1.9,11.8-5.2,15.8c-7,8.4-18.9,7.8-22.4,7.1l-1.2,4.2c2.4,0.5,4.9,0.8,7.5,0.8c19.3,0,35-15.7,35-35
		C70,19.4,59.8,6.2,45.7,1.7z"/>
	<path class="st0" d="M38.9,26.8L51.2,20C49.7,15.1,47.6,9.8,45,4L38.9,26.8z"/>
	<path class="st0" d="M51.6,20.9l-13.1,7.3l-5.2,19.5l22-6.4C55.3,35.5,54,28.7,51.6,20.9z"/>
</g>
</svg>
