<?xml version="1.0" standalone="no"?>
<!DOCTYPE svg PUBLIC "-//W3C//DTD SVG 20010904//EN"
 "http://www.w3.org/TR/2001/REC-SVG-20010904/DTD/svg10.dtd">
<svg version="1.0" xmlns="http://www.w3.org/2000/svg"
 width="700.000000pt" height="700.000000pt" viewBox="0 0 700.000000 700.000000"
 preserveAspectRatio="xMidYMid meet">
<metadata>
Created by potrace 1.11, written by Peter Selinger 2001-2013
</metadata>
<g transform="translate(0.000000,700.000000) scale(0.100000,-0.100000)"
fill="#000000" stroke="none">
<path d="M3298 6995 c-2 -1 -48 -6 -102 -9 -55 -4 -102 -8 -105 -10 -3 -2 -35
-7 -70 -10 -35 -4 -85 -11 -110 -16 -25 -5 -57 -12 -71 -14 -462 -84 -975
-303 -1364 -583 -249 -180 -527 -441 -700 -658 -341 -428 -573 -909 -692
-1440 -31 -137 -61 -330 -71 -465 -14 -173 -7 -591 11 -700 3 -14 7 -47 11
-75 9 -76 16 -116 25 -160 5 -22 11 -53 14 -70 11 -58 15 -76 45 -187 31 -115
65 -227 80 -263 5 -11 28 -69 51 -130 72 -185 178 -393 313 -609 65 -106 210
-296 315 -414 450 -507 1017 -866 1666 -1053 55 -16 102 -27 104 -24 3 3 27
82 53 177 26 95 52 188 58 207 11 35 7 51 -11 51 -5 0 -24 6 -41 14 -18 7 -48
19 -67 26 -67 25 -251 120 -358 186 -312 192 -582 439 -771 706 -52 73 -161
252 -161 263 0 2 -15 36 -34 77 -60 127 -120 304 -131 388 -2 14 -9 49 -15 79
-29 152 -32 432 -6 606 14 94 25 149 61 301 3 11 16 56 30 100 14 43 25 79 25
80 0 4 -419 440 -578 601 l-33 34 30 34 30 34 228 -230 c125 -127 254 -258
286 -290 32 -33 62 -59 65 -59 4 0 15 21 26 48 68 174 237 486 373 691 56 83
275 378 310 416 10 11 40 47 68 80 27 33 93 108 148 167 l98 107 -90 179 -90
180 42 21 c23 11 45 17 48 13 4 -4 46 -75 93 -157 l85 -151 224 221 c234 230
280 273 517 476 291 250 575 474 969 764 111 83 230 170 264 195 49 37 63 53
73 90 7 24 11 46 9 48 -4 5 -208 46 -280 56 -40 6 -93 15 -130 22 -93 18 -340
36 -532 39 -127 2 -233 2 -235 0z"/>
<path d="M4561 6787 c-13 -47 -17 -38 101 -297 61 -133 88 -195 178 -410 105
-252 244 -610 331 -857 30 -84 59 -153 66 -153 7 0 191 99 408 220 218 121
401 222 406 223 5 1 18 -17 29 -40 l19 -43 -42 -24 c-36 -21 -469 -263 -597
-334 -128 -71 -186 -104 -192 -110 -6 -7 6 -52 59 -217 14 -44 26 -87 28 -95
2 -8 17 -66 35 -129 17 -62 33 -120 35 -130 2 -9 17 -72 35 -141 17 -69 44
-191 60 -271 32 -158 34 -171 50 -274 6 -38 13 -81 15 -95 2 -14 7 -49 10 -79
4 -30 9 -63 11 -75 2 -12 7 -55 10 -96 3 -41 8 -91 10 -110 2 -19 6 -102 9
-185 4 -82 8 -151 9 -153 2 -1 32 6 67 17 35 10 132 37 214 60 83 23 157 44
166 47 13 3 19 -7 28 -42 7 -26 10 -49 7 -51 -3 -3 -111 -36 -241 -73 -130
-37 -238 -70 -241 -73 -3 -2 -7 -36 -9 -73 -8 -145 -16 -248 -19 -254 -2 -3
-6 -33 -10 -67 -15 -145 -86 -430 -146 -588 -227 -594 -649 -998 -1251 -1199
-150 -50 -336 -95 -464 -112 -27 -3 -58 -8 -68 -10 -123 -23 -534 -23 -686 0
-57 9 -106 14 -109 12 -6 -6 -122 -410 -118 -413 4 -4 138 -31 186 -37 25 -4
61 -9 80 -12 159 -23 264 -29 485 -29 187 1 318 7 410 20 17 3 50 7 75 10 42
5 56 7 120 20 14 2 41 7 60 10 19 4 91 20 160 36 746 182 1418 611 1904 1219
262 326 471 716 599 1115 59 183 115 429 133 585 3 25 10 72 14 105 9 63 6
718 -3 770 -3 17 -8 50 -12 75 -30 215 -91 463 -165 675 -18 50 -38 104 -45
120 -7 17 -25 59 -40 95 -51 121 -166 345 -221 432 -220 346 -407 569 -684
816 -320 286 -729 528 -1130 670 -47 17 -92 33 -101 37 -12 5 -19 -4 -28 -38z"/>
<path d="M4306 6542 c-270 -196 -581 -435 -811 -623 -38 -31 -390 -333 -395
-338 -3 -4 -59 -55 -125 -115 -66 -61 -209 -199 -319 -307 l-198 -198 52 -98
c29 -54 56 -105 60 -113 10 -22 22 -46 78 -151 27 -52 80 -152 117 -224 126
-242 193 -370 240 -460 26 -49 89 -171 140 -270 52 -99 123 -236 159 -305 37
-69 83 -158 103 -197 36 -70 53 -89 53 -59 0 8 20 90 46 183 25 92 47 175 49
183 4 18 103 389 180 675 30 110 81 304 115 430 34 127 86 321 116 433 31 112
57 211 59 220 7 29 30 117 99 372 36 135 79 295 95 355 42 159 137 509 160
593 11 40 17 72 13 72 -4 0 -43 -26 -86 -58z"/>
<path d="M4497 6583 c-4 -6 -10 -27 -15 -49 -5 -21 -64 -241 -130 -489 -66
-247 -130 -486 -142 -530 -12 -44 -28 -102 -35 -130 -25 -90 -97 -360 -100
-375 -2 -8 -13 -49 -24 -90 -124 -455 -157 -585 -150 -588 4 -2 45 18 90 44
89 50 122 68 234 129 39 21 126 70 195 108 69 38 148 82 175 97 28 15 138 76
245 135 107 60 211 117 230 128 19 10 38 22 42 25 10 10 -187 591 -257 757 -7
17 -41 100 -75 185 -71 178 -67 168 -150 360 -59 136 -85 196 -115 264 -7 15
-15 24 -18 19z"/>
<path d="M4900 4765 c-140 -78 -433 -241 -650 -362 -216 -121 -397 -226 -401
-234 -4 -8 -121 -441 -260 -964 -138 -522 -254 -955 -256 -962 -4 -9 5 -9 34
-2 42 12 270 78 373 110 36 10 74 21 85 23 11 3 65 18 120 34 55 17 170 51
255 75 85 25 297 87 470 137 173 51 329 96 345 100 30 8 317 92 448 131 l69
20 -7 147 c-3 81 -8 167 -10 192 -2 25 -6 72 -9 105 -7 73 -35 294 -41 315 -2
8 -7 35 -10 60 -3 25 -10 68 -15 95 -5 28 -12 61 -14 75 -38 209 -121 550
-198 815 -22 77 -45 158 -50 180 -5 22 -12 43 -16 46 -4 4 -122 -58 -262 -136z"/>
<path d="M2319 4808 c-35 -40 -66 -75 -70 -78 -3 -3 -36 -43 -74 -90 -38 -47
-83 -101 -100 -121 -16 -20 -39 -49 -50 -64 -11 -16 -36 -49 -55 -74 -192
-247 -424 -649 -524 -909 l-36 -94 163 -165 c89 -91 200 -205 247 -253 472
-483 716 -733 828 -848 375 -385 431 -440 436 -423 3 9 46 171 96 361 50 190
103 388 116 440 14 52 46 170 70 263 l44 168 -76 147 c-42 81 -105 201 -139
267 -34 66 -100 192 -145 280 -45 88 -108 210 -140 270 -31 61 -104 200 -161
310 -56 110 -143 277 -191 370 -48 94 -105 203 -125 243 -21 39 -40 72 -44 72
-4 0 -36 -33 -70 -72z"/>
<path d="M1341 3212 c-27 -90 -67 -282 -76 -362 -4 -36 -9 -76 -11 -90 -6 -42
-5 -322 1 -365 51 -347 131 -560 310 -830 221 -334 566 -629 985 -842 116 -58
234 -102 242 -90 3 7 32 106 63 222 31 116 64 235 72 265 8 30 17 62 18 70 4
16 92 333 101 362 5 18 53 -31 -791 822 -335 340 -674 682 -752 761 l-142 144
-20 -67z"/>
<path d="M5065 2620 c-851 -247 -1110 -322 -1140 -330 -83 -21 -602 -173 -614
-180 -8 -4 -15 -14 -17 -21 -1 -8 -29 -113 -62 -234 -32 -121 -85 -317 -117
-435 -31 -118 -72 -269 -90 -335 -18 -66 -45 -167 -60 -225 -15 -58 -38 -143
-51 -189 -13 -47 -22 -86 -21 -88 11 -10 254 -27 402 -27 159 0 308 12 445 34
114 19 126 21 170 31 25 6 52 12 61 14 43 9 174 50 259 81 644 238 1071 749
1221 1463 28 129 26 119 33 182 4 31 9 67 11 80 13 68 27 309 17 308 -4 -1
-205 -59 -447 -129z"/>
</g>
</svg>
