<?xml version="1.0" encoding="utf-8"?>
<!-- Generator: Adobe Illustrator 21.0.2, SVG Export Plug-In . SVG Version: 6.00 Build 0)  -->
<svg version="1.1" id="Ebene_1" xmlns="http://www.w3.org/2000/svg" xmlns:xlink="http://www.w3.org/1999/xlink" x="0px" y="0px"
	 viewBox="0 0 63 63" style="enable-background:new 0 0 63 63;" xml:space="preserve">
<style type="text/css">
	.st0{fill:#8C2842;}
</style>
<title>icon</title>
<path class="st0" d="M3,10.3l7.2,11.9c3.2,0.9,6.5,1.6,9.9,1.9L8.2,6.8c0,0-2-3-4.1-3.5C4,3.3,3.8,3.2,3.6,3.2
	c-0.4,0-0.8,0.1-1.2,0.4l0,0C1.9,3.9,1.5,4.4,1.4,5C1,7.2,3,10.3,3,10.3 M33.9,24.8c16.3,0,25.4-2.3,25.4-3.8s-9-3.8-25.4-3.8
	c-5.6-0.1-11.2,0.3-16.8,1l4.2,6.1C24.8,24.6,29,24.8,33.9,24.8 M9.1,21.7l-0.5-1c0,0.1-0.1,0.1-0.1,0.2C8.5,21.2,8.7,21.4,9.1,21.7
	 M16.3,17l0.4,0.5c5.7-0.8,11.5-1.2,17.2-1.1C46.5,16.4,60,18,60,20.9s-13.5,4.6-26.1,4.6S7.8,23.9,7.8,20.9c0-0.3,0.2-0.6,0.4-0.8
	l-0.4-0.7c-1.1,0.6-1.7,1.2-1.7,1.8c0,2.7,11.4,5.6,27.8,5.6c15.7,0,26.8-2.7,27.7-5.3c0-0.1,0.1-0.2,0.1-0.4
	c0-2.7-11.4-5.6-27.8-5.6C28,15.5,22.1,16,16.3,17 M61.6,22.9c-3.2,3.1-15.8,4.8-27.8,4.8S9.3,26,6.1,22.9c0,4.3,0.5,18.5,8.8,27.4
	c4.7,5,11.2,7.6,19.2,7.6s14.5-2.5,19.1-7.6C61.4,41.4,61.7,27.2,61.6,22.9 M44.7,57.8c0-0.2-0.3-0.4-0.8-0.7
	c-3.2,1-6.5,1.5-9.8,1.5c-3.4,0-6.8-0.5-10.1-1.6c-0.7,0.3-1.1,0.6-1.1,0.8c0,0.7,3.7,2,10.9,2S44.7,58.5,44.7,57.8 M0.7,4.8
	C0.8,4,1.3,3.3,2,2.9c0.7-0.5,1.5-0.6,2.3-0.4C6.7,3,8.7,6.1,8.8,6.2l6.9,10c6-1,12.1-1.4,18.1-1.4c13.8,0,28.6,2.3,28.6,6.4
	c0,0.2,0,0.3-0.1,0.5c0.1,1.8,0.9,18.8-8.6,29.1c-2.5,2.7-5.5,4.7-9,6c0.4,0.2,0.6,0.6,0.7,1c0,2.1-7,2.8-11.7,2.8
	s-11.7-0.8-11.7-2.8c0-0.4,0.3-0.8,0.9-1.1c-3.3-1.3-6.3-3.3-8.7-5.9c-9.7-10.3-9-27.7-9-29.1c0-0.1,0-0.2,0-0.4
	c0-0.9,0.8-1.8,2-2.5l-5-8.2C2.2,10.5,0.1,7.2,0.7,4.8"/>
</svg>
