<?xml version="1.0" encoding="utf-8"?>
<!-- Generator: Adobe Illustrator 21.0.2, SVG Export Plug-In . SVG Version: 6.00 Build 0)  -->
<svg version="1.1" id="Ebene_1" xmlns="http://www.w3.org/2000/svg" xmlns:xlink="http://www.w3.org/1999/xlink" x="0px" y="0px"
	 viewBox="0 0 63 63" style="enable-background:new 0 0 63 63;" xml:space="preserve">
<style type="text/css">
	.st0{fill:#B2AF9B;}
</style>
<title>icon</title>
<path class="st0" d="M33.9,7.4H17L2.1,60h45.8L33.9,7.4z M54.2,14.4l0.1-0.1l6.5-0.9c-0.9-2-5.2-9.6-14.9-10.3l1.3,5.8l-8.3,14
	l2,7.5L54.2,14.4z M8.3,14.7c-2-0.9-3.9,0-5.2,2.3c-2.4,4.5-0.5,8.3,1.4,12.3c1.3,2.6,2.8,5.2,3.1,8.2l4.1-14.6l0,0
	C12.8,19.7,11.3,16.2,8.3,14.7 M1.1,60.8l5.8-20.5c0.6-4-1.5-7.3-3.1-10.6c-2-4.2-3.9-8.2-1.4-13C3.9,14,6.2,13,8.7,14.1
	c2.2,1,3.7,3,4.1,5.4l3.5-12.6l0.1-0.3h18.1l4,15.2l7.8-13l-1.4-6.5h0.5c12,0.6,16.3,11.2,16.3,11.3l0.2,0.5l-7.2,1L41.1,31.3
	L49,60.8H1.1z"/>
</svg>
