<?xml version="1.0" encoding="utf-8"?>
<!-- Generator: Adobe Illustrator 21.0.2, SVG Export Plug-In . SVG Version: 6.00 Build 0)  -->
<svg version="1.1" id="Ebene_1" xmlns="http://www.w3.org/2000/svg" xmlns:xlink="http://www.w3.org/1999/xlink" x="0px" y="0px"
	 viewBox="0 0 46.6 61.8" style="enable-background:new 0 0 46.6 61.8;" xml:space="preserve">
<style type="text/css">
	.st0{fill:#FFFFFF;}
</style>
<g>
	<path class="st0" d="M37.3,49.9c-5.8,6.8-15.4,6.4-18.3,5.8l3.5-13l0,0l19-5.5C41.3,42.5,39.9,46.7,37.3,49.9 M5.2,41.3
		c-0.5-2.7-0.2-5.6,0.8-8.6l14.4,14.7l-2.2,8.1C15.3,54.5,6.7,50.1,5.2,41.3 M14.7,19l8.7,16.8l-2.9,10.6L6.2,31.8
		C7.8,27.7,10.6,23.5,14.7,19 M31.8,4.3l-8.1,30.3l-8.5-16.2C19.5,13.8,25.1,9.1,31.8,4.3 M38,18.1l-10.6,5.9l5.2-19.4
		C34.9,9.3,36.7,13.8,38,18.1 M41.5,36.3l-18.8,5.4l4.5-16.6l11.2-6.2C40.4,25.5,41.5,31.3,41.5,36.3 M46.6,35.7l-0.2-0.8l-4,1.2
		c0-5-1.1-10.9-3.3-17.5l7.2-4l-0.4-0.7l-7,3.9c-1.5-4.5-3.4-9.3-5.8-14.4l0.8-3L33,0l-0.8,3C25,8,19.3,12.8,14.8,17.5l-1.4-2.7
		l-0.8,0.4l1.6,3c-4.2,4.5-7.1,8.8-8.7,12.9l-4.9-5L0,26.6L5.2,32c-1.1,3.3-1.4,6.4-0.9,9.5C5.9,50.7,15,55.3,17.9,56.3l-1.4,5.3
		l0.8,0.2l1.4-5.3c3,0.6,13.2,1.1,19.2-6.1c2.9-3.4,4.3-7.9,4.4-13.5L46.6,35.7z"/>
</g>
</svg>
