<svg id="Ebene_1" data-name="Ebene 1" xmlns="http://www.w3.org/2000/svg" viewBox="0 0 60.76 58.64"><defs><style>.cls-1{fill:#b2af9b;}</style></defs><title>icon</title><path class="cls-1" d="M32.79,5.21H15.85L1,57.85H46.82Zm20.25,7,.1-.12,6.5-.94c-.94-2-5.22-9.6-14.9-10.32L46,6.66l-8.26,14,2,7.51Zm-45.82.33c-2-.86-3.92,0-5.17,2.26-2.37,4.52-.55,8.32,1.38,12.34,1.26,2.64,2.75,5.22,3.14,8.15l4.1-14.58h0a6.85,6.85,0,0,0-3.45-8.16M0,58.64,5.78,38.1c.55-4-1.45-7.26-3.06-10.61-2-4.2-3.92-8.17-1.36-13,1.44-2.65,3.75-3.63,6.17-2.61a7.35,7.35,0,0,1,4.12,5.42L15.18,4.71l.08-.29H33.39l4,15.16L45.14,6.53,43.75,0l.51,0c12,.58,16.27,11.2,16.32,11.31l.18.46-7.21,1L40,29.09l7.88,29.55Z"/></svg>