<svg id="Ebene_1" data-name="Ebene 1" xmlns="http://www.w3.org/2000/svg" viewBox="0 0 61.85 58.27"><defs><style>.cls-1{fill:#8c2842;}</style></defs><title>icon</title><path class="cls-1" d="M2.47,7.93,9.7,19.78a60,60,0,0,0,9.86,1.93L7.64,4.4s-2-3-4.07-3.46A2.48,2.48,0,0,0,3.05.88a2.15,2.15,0,0,0-1.2.37h0a2.12,2.12,0,0,0-1,1.41C.44,4.81,2.44,7.89,2.47,7.93M33.28,22.44c16.34,0,25.39-2.27,25.39-3.84s-9-3.84-25.39-3.84a121.7,121.7,0,0,0-16.83,1l4.23,6.14c3.53.32,7.73.53,12.6.53M8.54,19.35,8,18.4a.55.55,0,0,0-.07.19c0,.24.23.49.64.76m7.12-4.73.35.51A125.27,125.27,0,0,1,33.28,14c12.65,0,26.1,1.6,26.1,4.56s-13.45,4.56-26.1,4.56-26.1-1.6-26.1-4.56a1.26,1.26,0,0,1,.4-.82l-.41-.67c-1.08.59-1.68,1.21-1.68,1.81,0,2.67,11.41,5.65,27.79,5.65,15.66,0,26.77-2.72,27.72-5.3a1,1,0,0,0,.07-.35c0-2.67-11.41-5.65-27.79-5.65a104.61,104.61,0,0,0-17.62,1.35M61,20.53c-3.24,3.14-15.82,4.82-27.77,4.82S8.72,23.67,5.5,20.52c0,4.32.51,18.5,8.81,27.36,4.71,5,11.18,7.58,19.22,7.58S48,52.91,52.63,47.89C60.82,39,61.15,24.82,61,20.53M44.16,55.45c0-.19-.29-.44-.85-.68a31,31,0,0,1-9.78,1.47,31,31,0,0,1-10.06-1.56c-.7.28-1.07.55-1.07.77,0,.71,3.74,2,10.88,2s10.88-1.32,10.88-2M.08,2.41A2.92,2.92,0,0,1,1.38.5,3,3,0,0,1,3.69.07C6.12.59,8.17,3.74,8.25,3.86l6.9,10a109.38,109.38,0,0,1,18.13-1.4c13.85,0,28.57,2.26,28.57,6.44a1.78,1.78,0,0,1-.06.45c.11,1.78.86,18.84-8.58,29.06a23.13,23.13,0,0,1-8.95,6,1.3,1.3,0,0,1,.68,1c0,2.06-7,2.81-11.67,2.81s-11.67-.75-11.67-2.81c0-.44.31-.81.85-1.14a23.55,23.55,0,0,1-8.73-5.9C4,38.05,4.67,20.66,4.74,19.28a1.75,1.75,0,0,1,0-.36c0-.93.76-1.76,2-2.5l-5-8.16C1.67,8.12-.44,4.87.08,2.41"/></svg>