<?xml version="1.0" encoding="utf-8"?>
<!-- Generator: Adobe Illustrator 21.0.2, SVG Export Plug-In . SVG Version: 6.00 Build 0)  -->
<svg version="1.1" id="Ebene_1" xmlns="http://www.w3.org/2000/svg" xmlns:xlink="http://www.w3.org/1999/xlink" x="0px" y="0px"
	 viewBox="0 0 63 63" style="enable-background:new 0 0 63 63;" xml:space="preserve">
<style type="text/css">
	.st0{fill:#AFCB37;}
</style>
<title>icon</title>
<path class="st0" d="M48.7,45.7c-3.6,7.6-12.4,9.5-15.2,9.7V42.8l15.9-9.6C50.5,38.1,50.3,42.2,48.7,45.7 M17.5,45.7
	c-1.1-2.5-1.6-5.3-1.4-8l16.6,9.9v7.9C29.9,55.3,21.1,53.4,17.5,45.7 M20.7,23.3l12,13.1v10.3l-16.5-9.8
	C16.8,32.1,18.4,27.5,20.7,23.3 M32.7,5.8v29.4L21.1,22.5C24.4,16.6,28.3,10.9,32.7,5.8 M41.7,16.8l-8.2,7.9V5.8
	C36.4,9.3,39.2,12.9,41.7,16.8 M49.2,32.4l-15.7,9.5V25.7l8.6-8.3C45.2,22.1,47.6,27.1,49.2,32.4 M53.7,30.6l-0.4-0.7l-3.3,2
	c-1.6-5.4-4.1-10.5-7.2-15.1l5.6-5.3l-0.6-0.6l-5.4,5.2c-2.7-4.1-5.6-8-8.8-11.7V1.6h-0.8v2.9C28.1,9.9,24,15.7,20.5,21.9l-2-2.1
	l-0.6,0.5l2.2,2.4c-2.4,4.3-4,9-4.7,13.8L9.7,33l-0.4,0.7l6,3.6c-0.3,3,0.3,6,1.5,8.8c3.7,8,13,10,15.9,10.2v5.1h0.8v-5.1
	c2.9-0.2,12.2-2.2,15.9-10.2c1.8-3.8,2-8.2,0.7-13.3L53.7,30.6z"/>
</svg>
