<?xml version="1.0" encoding="utf-8"?>
<!-- Generator: Adobe Illustrator 21.0.2, SVG Export Plug-In . SVG Version: 6.00 Build 0)  -->
<svg version="1.1" id="Ebene_1" xmlns="http://www.w3.org/2000/svg" xmlns:xlink="http://www.w3.org/1999/xlink" x="0px" y="0px"
	 viewBox="0 0 115.5 72.8" style="enable-background:new 0 0 115.5 72.8;" xml:space="preserve">
<!--<style type="text/css">
	.st0{fill:#AFCB37;}
</style>-->
<path class="st0" d="M115.5,59.8c0-0.1-0.1-0.2-0.2-0.2h-0.8c0,0-0.1,0-0.1,0c0,0.1,0,0.1,0,0.2v12.6c0,0.1,0,0.1,0.1,0.2
	c0.1,0,0.1,0,0.2,0h0.7c0.1,0,0.2,0,0.3-0.1c0,0,0-0.1,0-0.1L115.5,59.8z M104.9,67.4c0-0.6,0.1-1.1,0.4-1.6
	c0.2-0.5,0.6-0.9,1.1-1.3c0.5-0.3,1.1-0.5,1.7-0.5c0.5,0,1.1,0.1,1.6,0.4c0.4,0.3,0.8,0.7,1,1.1c0.2,0.5,0.4,1,0.4,1.6
	c0,0.1,0,0.1-0.1,0.2c-0.1,0-0.2,0.1-0.2,0.1L104.9,67.4z M104.9,68.5c0-0.2,0-0.3,0.1-0.3h6.9c0.1,0,0.2,0,0.2-0.1
	c0-0.1,0-0.1,0-0.2v-0.1c0.1-1.3-0.3-2.5-1.1-3.5c-0.8-0.8-1.9-1.3-3-1.3c-0.8,0-1.6,0.2-2.2,0.6c-0.7,0.4-1.2,1-1.6,1.7
	c-0.4,0.8-0.6,1.7-0.6,2.6c0,0.9,0.2,1.7,0.6,2.5c0.3,0.7,0.9,1.3,1.6,1.7c0.7,0.4,1.5,0.6,2.3,0.6c0.8,0,1.5-0.1,2.2-0.5
	c0.7-0.3,1.2-0.9,1.6-1.5c0,0,0-0.1,0-0.1c0,0,0-0.1-0.1-0.1l-0.6-0.3c0,0-0.1,0-0.1,0c0,0-0.1,0-0.1,0.1c-0.6,1-1.7,1.6-2.9,1.5
	c-0.6,0-1.1-0.2-1.6-0.5C105.4,70.8,104.8,69.7,104.9,68.5 M94.2,72.6h0.7c0.2,0,0.2-0.1,0.2-0.2v-6.8c0.5-0.4,1.1-0.8,1.7-1.2
	c0.5-0.2,1-0.3,1.5-0.3c0.9-0.1,1.8,0.5,2,1.5c0,0.2,0,0.4,0,0.5v6.3c0,0.1,0.1,0.2,0.2,0.2c0,0,0,0,0,0h0.7c0.1,0,0.2-0.1,0.2-0.2
	v-6.6c0-0.7-0.2-1.4-0.7-1.9c-0.6-0.5-1.3-0.8-2.1-0.7c-0.5,0-1.1,0.1-1.6,0.3c-0.6,0.3-1.2,0.7-1.8,1.1c-0.1,0.1-0.2,0.1-0.2-0.1
	v-4.7c0-0.1,0-0.2-0.1-0.2c0,0,0,0-0.1,0h-0.8c-0.1,0-0.2,0.1-0.2,0.2v12.6C94,72.5,94.1,72.6,94.2,72.6
	C94.2,72.6,94.2,72.6,94.2,72.6 M88.2,63.1c-0.8,0-1.6,0.2-2.2,0.6c-0.7,0.4-1.2,1-1.5,1.7c-0.7,1.6-0.7,3.4,0,5
	c0.3,0.7,0.9,1.3,1.6,1.7c0.7,0.4,1.5,0.6,2.2,0.6c0.8,0,1.5-0.2,2.2-0.6c0.6-0.4,1.2-0.9,1.6-1.6c0-0.1,0-0.2-0.1-0.2l-0.6-0.3
	c-0.1,0-0.1,0-0.2,0.1c-0.3,0.5-0.7,0.9-1.2,1.3c-0.5,0.3-1,0.4-1.5,0.4c-0.9,0.1-1.8-0.3-2.4-1.1c-1.2-1.7-1.2-4,0-5.7
	c0.6-0.7,1.4-1.1,2.4-1.1c0.4,0,0.9,0.1,1.3,0.4c0.5,0.3,0.9,0.7,1.2,1.2c0,0.1,0.1,0.1,0.1,0.1H91l0.7-0.2c0.1,0,0.1,0,0.1-0.1
	c0,0,0-0.1,0-0.2C91.2,63.9,89.8,63.1,88.2,63.1 M81.7,63.5c0-0.1,0-0.1,0-0.2c0,0-0.1,0-0.2,0h-0.8c0,0-0.1,0-0.2,0
	c0,0.1,0,0.1,0,0.2v8.9c0,0.1,0,0.1,0.1,0.2c0.1,0,0.1,0,0.2,0h0.7c0.1,0,0.2,0,0.2-0.1c0-0.1,0.1-0.1,0.1-0.2L81.7,63.5z
	 M81.7,59.8c0-0.2-0.1-0.2-0.2-0.2h-0.8c-0.2,0-0.2,0.1-0.2,0.3v1.4c0,0.1,0,0.1,0,0.2c0,0.1,0.1,0.1,0.2,0.1h0.8
	c0.1,0,0.2,0,0.2-0.1c0-0.1,0.1-0.2,0.1-0.2L81.7,59.8z M64.8,72.6h0.7c0.2,0,0.2-0.1,0.2-0.2v-6.8c0.5-0.4,1-0.8,1.6-1.2
	c0.4-0.2,0.9-0.3,1.4-0.3c1.2,0,1.8,0.7,1.8,2v6.3c0,0.1,0.1,0.2,0.2,0.2c0,0,0,0,0,0h0.7c0.1,0,0.2-0.1,0.2-0.2v-6.5
	c0-0.1,0-0.2,0.1-0.3c0.1-0.1,0.1-0.2,0.2-0.2c0.4-0.3,0.8-0.6,1.3-0.9c0.4-0.2,0.9-0.4,1.4-0.4c1.2,0,1.8,0.7,1.8,2v6.3
	c0,0.1,0,0.1,0,0.2c0,0,0.1,0,0.2,0h0.7c0.1,0,0.2-0.1,0.2-0.2c0,0,0,0,0-0.1v-6.6c0.1-1.3-0.9-2.5-2.2-2.6c-0.1,0-0.3,0-0.4,0
	c-0.5,0-1.1,0.1-1.5,0.3c-0.6,0.3-1.2,0.7-1.7,1.1c-0.1,0-0.1,0.1-0.2,0.1c0,0,0,0-0.1-0.1c-0.2-0.4-0.5-0.8-0.9-1.1
	c-0.5-0.3-1.1-0.5-1.7-0.4c-0.5,0-1,0.1-1.5,0.3c-0.6,0.3-1.1,0.7-1.7,1.1c-0.1,0.1-0.2,0.1-0.2-0.1v-1c0-0.1,0-0.2-0.1-0.2
	c0,0,0,0,0,0h-0.8c-0.1,0-0.2,0.1-0.2,0.2v8.9C64.6,72.5,64.6,72.6,64.8,72.6C64.8,72.6,64.8,72.6,64.8,72.6 M57.3,72.6h1.6
	c0.3,0,0.4-0.1,0.4-0.3v-5.4c0-0.3,0.1-0.6,0.3-0.8c0.2-0.3,0.5-0.5,0.8-0.6c0.3-0.2,0.7-0.2,1-0.2c0.4,0,0.7,0,1.1,0.1
	c0.2,0,0.2,0,0.2-0.2v-1.7c0-0.2-0.2-0.3-0.6-0.3c-0.5,0-1,0.2-1.4,0.4c-0.5,0.3-0.9,0.7-1.3,1.2c0,0-0.1,0.1-0.1,0.1
	c-0.1,0-0.1,0-0.1-0.1v-1.1c0-0.2-0.1-0.3-0.2-0.3h-1.7c-0.2,0-0.2,0.1-0.2,0.3v8.7C57,72.5,57.1,72.6,57.3,72.6
	C57.3,72.6,57.4,72.6,57.3,72.6 M48.7,67.1c0-0.7,0.2-1.3,0.6-1.8c0.4-0.5,1-0.7,1.7-0.7c0.4,0,0.8,0.1,1.2,0.3
	c0.3,0.2,0.6,0.5,0.7,0.9c0.2,0.3,0.2,0.7,0.2,1.1c0,0.1,0,0.2-0.1,0.2c-0.1,0-0.2,0-0.2,0L48.7,67.1z M48.7,68.7
	c0-0.2,0.1-0.3,0.2-0.3h6.2c0.1,0,0.2,0,0.2-0.1c0-0.1,0.1-0.2,0-0.2V68c0-0.9-0.2-1.8-0.5-2.6c-0.3-0.7-0.9-1.3-1.6-1.7
	c-1.5-0.8-3.2-0.8-4.7,0c-0.7,0.4-1.3,1-1.7,1.7c-0.4,0.8-0.6,1.7-0.6,2.6c0,0.9,0.2,1.7,0.6,2.4c0.4,0.7,1,1.3,1.7,1.7
	c0.7,0.4,1.6,0.6,2.4,0.6c0.8,0,1.6-0.1,2.4-0.5c0.7-0.4,1.3-0.9,1.8-1.6c0,0,0.1-0.1,0.1-0.2c0-0.1,0-0.1-0.1-0.2l-1-0.4
	c0,0-0.1,0-0.2-0.1c-0.1,0-0.1,0-0.1,0.1c-0.3,0.4-0.7,0.7-1.1,1c-0.4,0.2-0.9,0.3-1.3,0.3c-0.5,0-0.9-0.1-1.3-0.3
	c-0.4-0.2-0.8-0.5-1-0.9C48.8,69.6,48.7,69.2,48.7,68.7 M45.1,64.9c0.2,0,0.3-0.1,0.3-0.3v-1.1c0-0.2-0.1-0.2-0.3-0.2h-2
	c-0.1,0-0.1,0-0.2-0.1c0,0,0,0,0,0v-2.7c0-0.1,0-0.2-0.1-0.2c0-0.1-0.1-0.1-0.2-0.1h-1.6c-0.1,0-0.1,0-0.2,0.1
	c0,0.1-0.1,0.1-0.1,0.2l-0.2,2.7c0,0.1,0,0.2-0.2,0.2h-1.3c-0.2,0-0.3,0.1-0.3,0.2v1.1c0,0.2,0.1,0.3,0.3,0.3h1.2
	c0.1,0,0.2,0.1,0.2,0.2v5.2c-0.1,0.6,0.2,1.2,0.6,1.7c0.5,0.4,1.2,0.6,1.8,0.6c0.6,0,1.3,0,1.9-0.1c0.2,0,0.3-0.2,0.3-0.3v-0.9
	c0-0.1,0-0.1-0.1-0.2c0,0-0.1-0.1-0.2-0.1h-1c-0.3,0-0.6-0.1-0.9-0.3c-0.2-0.3-0.3-0.6-0.3-0.9v-4.7c0-0.1,0.1-0.2,0.2-0.2
	L45.1,64.9z M33,71.1c-0.4,0-0.7-0.1-1-0.4c-0.3-0.3-0.4-0.7-0.4-1.1v-6c0-0.1,0-0.2-0.1-0.3c-0.1-0.1-0.1-0.1-0.2-0.1h-1.6
	c-0.2,0-0.3,0.1-0.4,0.3c0,0,0,0.1,0,0.1V70c0,0.7,0.2,1.5,0.8,2c0.5,0.5,1.3,0.8,2,0.8c0.5,0,1.1-0.1,1.5-0.3
	c0.6-0.3,1.1-0.6,1.5-1.1c0,0,0.1-0.1,0.1-0.1s0,0,0,0.1v0.9c0,0.2,0.1,0.3,0.2,0.3h1.7c0.2,0,0.2-0.1,0.2-0.3v-8.7
	c0-0.2-0.1-0.3-0.3-0.3h-1.6c-0.3,0-0.4,0.1-0.4,0.3v6.2C34.7,70.6,33.9,71,33,71.1 M26.1,59.8c0-0.2-0.1-0.2-0.2-0.2h-1.6
	c-0.1,0-0.2,0.1-0.2,0.3v1.6c0,0.1,0,0.2,0.1,0.2c0.1,0,0.2,0.1,0.2,0.1h1.4c0.1,0,0.2,0,0.3-0.1c0.1-0.1,0.1-0.2,0.1-0.2L26.1,59.8
	z M22.9,59.8c0-0.2-0.1-0.2-0.2-0.2h-1.6c-0.1,0-0.2,0.1-0.2,0.3v1.6c0,0.1,0.1,0.3,0.2,0.3c0,0,0.1,0,0.1,0h1.4
	c0.1,0,0.2,0,0.3-0.1c0.1-0.1,0.1-0.2,0.1-0.2L22.9,59.8z M25.2,68.4v1.2c0,0.4-0.3,0.8-0.7,1.1c-0.4,0.4-1,0.6-1.6,0.6
	c-0.4,0-0.8-0.1-1.1-0.3c-0.3-0.2-0.4-0.6-0.4-0.9c0-0.5,0.3-1,0.8-1.3c0.6-0.3,1.3-0.5,2-0.6l0.7-0.1c0.1,0,0.1,0,0.2,0.1
	C25.1,68.2,25.1,68.3,25.2,68.4 M24.8,71.7c0.1-0.1,0.1-0.1,0.2-0.1c0.1,0,0.1,0.1,0.1,0.2v0.5c0,0.1,0,0.2,0.1,0.3
	c0.1,0.1,0.1,0.1,0.2,0.1H27c0.1,0,0.2,0,0.2-0.1c0-0.1,0.1-0.2,0.1-0.3v-6.2c0-0.8-0.3-1.6-0.9-2.2c-0.8-0.6-1.9-0.9-2.9-0.8
	c-0.9,0-1.8,0.2-2.6,0.5c-0.7,0.3-1.2,0.8-1.5,1.5c0,0.1-0.1,0.1-0.1,0.2c0,0.1,0.1,0.1,0.1,0.2l1.5,0.4h0.1c0,0,0.1,0,0.1,0
	l0.1-0.1c0.4-0.7,1.2-1.2,2.1-1.2c0.5,0,0.9,0.1,1.3,0.4c0.3,0.3,0.5,0.8,0.5,1.2v0.4c0,0.2-0.1,0.2-0.3,0.3L24,67
	c-1.3,0-2.5,0.3-3.6,0.9c-0.8,0.5-1.3,1.4-1.3,2.3c0,0.7,0.3,1.4,0.8,1.8c0.6,0.5,1.3,0.8,2.1,0.7C23,72.8,24.1,72.4,24.8,71.7
	 M12.8,72.7h1.6c0.3,0,0.4-0.1,0.4-0.3v-5.4c0-0.3,0.1-0.6,0.3-0.8c0.2-0.3,0.5-0.5,0.8-0.6c0.3-0.2,0.7-0.2,1-0.2
	c0.4,0,0.7,0,1.1,0.1c0.1,0,0.2,0,0.2-0.2v-1.7c0-0.2-0.2-0.3-0.6-0.3c-0.5,0-1,0.2-1.4,0.4c-0.5,0.3-0.9,0.7-1.3,1.2
	c-0.1,0.1-0.1,0.1-0.1,0.1s-0.1,0-0.1-0.1v-1.1c0-0.2-0.1-0.3-0.2-0.3h-1.7c-0.2,0-0.2,0.1-0.2,0.3v8.7
	C12.5,72.5,12.6,72.6,12.8,72.7C12.8,72.6,12.9,72.6,12.8,72.7 M10.8,72.2l-4.3-7.8c0-0.1,0-0.1-0.1-0.2c0-0.1,0-0.1,0.1-0.2
	l3.6-4.2c0,0,0.1-0.1,0.1-0.2c0-0.1,0-0.1-0.1-0.1c-0.1,0-0.1-0.1-0.2,0H8.1c-0.1,0-0.2,0-0.3,0c-0.1,0-0.1,0.1-0.2,0.2l-4.8,5.8
	c-0.1,0.1-0.1,0.1-0.1,0.1s-0.1-0.1-0.1-0.2v-5.7c0-0.2-0.1-0.3-0.2-0.3H0.2c-0.1,0-0.1,0-0.2,0.1C0,59.7,0,59.8,0,59.9v12.4
	c0,0.1,0,0.2,0.1,0.2c0.1,0.1,0.2,0.1,0.3,0.1h1.8c0.3,0,0.4-0.1,0.4-0.3v-3.3c0-0.1,0-0.3,0.1-0.3l1.7-2c0.1-0.1,0.1-0.1,0.2-0.1
	c0.1,0,0.1,0,0.1,0.1l3.2,5.9c0.1,0.2,0.3,0.3,0.4,0.2h2.2c0.1,0,0.2-0.1,0.2-0.2C10.8,72.4,10.8,72.3,10.8,72.2"/>
<path class="st0" d="M71.3,43.4c-5,6-13.4,5.6-15.9,5.1l3-11.3l0,0l16.5-4.8C74.8,36.9,73.6,40.6,71.3,43.4 M43.4,35.9
	c-0.4-2.5-0.2-5.1,0.6-7.5l12.5,12.8l-1.9,7C52.2,47.4,44.7,43.5,43.4,35.9 M51.6,16.5l7.6,14.6l-2.5,9.2L44.3,27.6
	C46,23.5,48.5,19.7,51.6,16.5 M66.6,3.7L59.5,30l-7.3-14.1C56.6,11.4,61.4,7.3,66.6,3.7 M72,15.7l-9.2,5.1l4.5-16.9
	C69.1,7.7,70.7,11.7,72,15.7 M75,31.5l-16.4,4.7l3.9-14.5l9.7-5.4C73.9,21.3,74.8,26.4,75,31.5 M79.4,31l-0.2-0.7l-3.5,1
	c-0.2-5.2-1.1-10.4-2.8-15.3l6.2-3.4L78.8,12l-6.1,3.4c-1.4-4.3-3.1-8.5-5.1-12.6l0.7-2.6L67.6,0l-0.7,2.6
	c-5.4,3.7-10.5,7.9-15.1,12.6l-1.2-2.4l-0.7,0.3l1.4,2.6c-3.2,3.2-5.7,7-7.5,11.2l-4.3-4.4l-0.5,0.5l4.5,4.6c-1,2.6-1.2,5.5-0.8,8.2
	c1.4,8,9.3,12.1,11.8,12.9l-1.2,4.6l0.7,0.2l1.2-4.6c2.6,0.5,11.4,1,16.7-5.3c2.5-3,3.8-6.9,3.9-11.8L79.4,31z"/>
</svg>
