<svg id="Ebene_1" data-name="Ebene 1" xmlns="http://www.w3.org/2000/svg" viewBox="0 0 115.54 72.79"><defs><style>.cls-1{fill:#fff;}</style></defs><title>logo</title><path class="cls-1" d="M115.54,59.79c0-.14-.06-.21-.18-.21h-.79a.18.18,0,0,0-.14,0,.29.29,0,0,0,0,.17l0,12.61a.21.21,0,0,0,.05.17.28.28,0,0,0,.18,0h.67a.21.21,0,0,0,.26-.26Zm-10.68,7.6a3.5,3.5,0,0,1,.36-1.63,3.15,3.15,0,0,1,1.1-1.26A3,3,0,0,1,108,64a2.87,2.87,0,0,1,1.56.42,2.8,2.8,0,0,1,1,1.14,3.45,3.45,0,0,1,.36,1.56.24.24,0,0,1-.06.19.38.38,0,0,1-.24.05Zm0,1.09c0-.18,0-.26.12-.26h6.94c.11,0,.17,0,.2-.07a.37.37,0,0,0,0-.19v-.11A5,5,0,0,0,111,64.38a3.85,3.85,0,0,0-3-1.26,4.25,4.25,0,0,0-2.24.6,4.14,4.14,0,0,0-1.56,1.71,5.66,5.66,0,0,0-.57,2.61,5.27,5.27,0,0,0,.56,2.47,4.14,4.14,0,0,0,1.55,1.68,4.33,4.33,0,0,0,2.27.6,4.75,4.75,0,0,0,2.21-.48,4.14,4.14,0,0,0,1.58-1.5.17.17,0,0,0,0-.12.13.13,0,0,0-.06-.09l-.6-.33a.2.2,0,0,0-.12,0s-.07,0-.11.1a3.21,3.21,0,0,1-2.88,1.53,3.05,3.05,0,0,1-1.62-.46,3.43,3.43,0,0,1-1.62-2.91M94.22,72.61h.72c.15,0,.23-.07.23-.21V65.59a9.77,9.77,0,0,1,1.66-1.16,3.2,3.2,0,0,1,1.47-.33,1.73,1.73,0,0,1,1.95,2V72.4a.19.19,0,0,0,.21.21h.74c.14,0,.21-.08.21-.23V65.76a2.57,2.57,0,0,0-.73-1.92,2.88,2.88,0,0,0-2.1-.71,3.61,3.61,0,0,0-1.55.32,11.12,11.12,0,0,0-1.75,1.1c-.11.1-.16.09-.16-.05V59.76a.15.15,0,0,0-.17-.18h-.76c-.12,0-.18.06-.18.19V72.4a.19.19,0,0,0,.21.21m-6-9.48a4.08,4.08,0,0,0-2.23.62,4.25,4.25,0,0,0-1.54,1.73,6,6,0,0,0,0,5A4.09,4.09,0,0,0,86,72.18a4.2,4.2,0,0,0,2.25.61,4,4,0,0,0,2.19-.59A4.45,4.45,0,0,0,92,70.59c0-.11,0-.17-.05-.21l-.61-.28c-.07,0-.14,0-.21.07a4.05,4.05,0,0,1-1.2,1.28,2.76,2.76,0,0,1-1.52.42A2.9,2.9,0,0,1,86,70.81a5.08,5.08,0,0,1,0-5.71A2.88,2.88,0,0,1,88.36,64a2.34,2.34,0,0,1,1.27.36,5,5,0,0,1,1.2,1.17q.07.1.14.11l.07,0,.74-.25c.06,0,.09,0,.1-.08a.28.28,0,0,0,0-.15,4,4,0,0,0-3.57-2.05m-6.65.39a.24.24,0,0,0,0-.17.21.21,0,0,0-.15,0h-.77a.21.21,0,0,0-.15,0,.24.24,0,0,0,0,.17V72.4a.21.21,0,0,0,.05.17.28.28,0,0,0,.18,0h.65a.34.34,0,0,0,.23-.05.3.3,0,0,0,.05-.21Zm.07-3.69q0-.25-.23-.25h-.84c-.15,0-.23.09-.23.26v1.37a.41.41,0,0,0,0,.21.2.2,0,0,0,.18.07h.81a.24.24,0,0,0,.21-.08.43.43,0,0,0,.05-.24ZM64.83,72.61h.72c.15,0,.23-.07.23-.21V65.59a9.75,9.75,0,0,1,1.59-1.16,2.87,2.87,0,0,1,1.38-.33q1.81,0,1.81,2V72.4a.19.19,0,0,0,.21.21h.74c.14,0,.21-.08.21-.23v-6.5a.57.57,0,0,1,.06-.27,1,1,0,0,1,.22-.25,7.51,7.51,0,0,1,1.29-.9,2.9,2.9,0,0,1,1.41-.36q1.81,0,1.81,2V72.4a.24.24,0,0,0,0,.17.21.21,0,0,0,.15,0h.74a.2.2,0,0,0,.23-.23V65.76A2.44,2.44,0,0,0,75,63.13a3.35,3.35,0,0,0-1.54.35,10.16,10.16,0,0,0-1.68,1.14.39.39,0,0,1-.18.09s0,0-.07-.05a2.25,2.25,0,0,0-.87-1.08A2.77,2.77,0,0,0,69,63.13a3.29,3.29,0,0,0-1.49.33,10.92,10.92,0,0,0-1.67,1.11c-.11.09-.16.08-.16-.05v-1a.16.16,0,0,0-.18-.18h-.76c-.12,0-.17.06-.17.19v8.9a.19.19,0,0,0,.21.21m-7.46,0h1.56c.27,0,.4-.12.4-.35V66.89a1.27,1.27,0,0,1,.33-.82,2.46,2.46,0,0,1,.82-.64,2.17,2.17,0,0,1,1-.25,4.49,4.49,0,0,1,1.09.12c.15,0,.23,0,.23-.21V63.41c0-.19-.21-.28-.63-.28a2.7,2.7,0,0,0-1.37.41,4.61,4.61,0,0,0-1.28,1.15.24.24,0,0,1-.14.09c-.06,0-.09,0-.09-.14V63.57c0-.18-.08-.26-.24-.26h-1.7c-.16,0-.24.1-.24.3v8.69a.28.28,0,0,0,.32.32M48.73,67.1a2.56,2.56,0,0,1,.62-1.8A2.13,2.13,0,0,1,51,64.57a2,2,0,0,1,1.15.33,2.12,2.12,0,0,1,.73.86,2.56,2.56,0,0,1,.25,1.09c0,.11,0,.17-.06.2a.43.43,0,0,1-.24,0Zm0,1.58c0-.19.07-.28.19-.28H55.1a.32.32,0,0,0,.23-.09.43.43,0,0,0,.05-.25V68a5.73,5.73,0,0,0-.55-2.61,3.91,3.91,0,0,0-1.56-1.68,4.85,4.85,0,0,0-4.66,0,4.41,4.41,0,0,0-1.67,1.74,5.32,5.32,0,0,0-.62,2.6,4.93,4.93,0,0,0,.6,2.44,4.25,4.25,0,0,0,1.66,1.67,4.81,4.81,0,0,0,2.4.6,5.21,5.21,0,0,0,2.36-.48,4.82,4.82,0,0,0,1.75-1.62.33.33,0,0,0,.07-.16.17.17,0,0,0-.12-.16L54,69.89a.41.41,0,0,0-.16-.05.24.24,0,0,0-.14.09,3.63,3.63,0,0,1-1.11,1,2.78,2.78,0,0,1-1.31.31,2.63,2.63,0,0,1-1.29-.32A2.38,2.38,0,0,1,49,70a2.51,2.51,0,0,1-.33-1.29M45.14,64.9c.2,0,.3-.09.3-.26V63.53c0-.16-.09-.25-.26-.25h-2a.14.14,0,0,1-.16-.16V60.44a.32.32,0,0,0-.07-.22.22.22,0,0,0-.17-.08H41.23a.22.22,0,0,0-.18.06.41.41,0,0,0-.07.22l-.23,2.7c0,.12-.05.18-.16.18H39.3c-.18,0-.26.08-.26.23v1.11c0,.18.09.26.28.26h1.18c.14,0,.21.08.21.23v5.25a2.13,2.13,0,0,0,.62,1.68,2.66,2.66,0,0,0,1.82.55,12.72,12.72,0,0,0,1.93-.11c.22,0,.33-.15.33-.35l0-.91a.24.24,0,0,0-.07-.17.24.24,0,0,0-.17-.07h-1a1.22,1.22,0,0,1-.89-.27,1.3,1.3,0,0,1-.27-.94V65.09c0-.13.06-.19.17-.19ZM33,71.12a1.36,1.36,0,0,1-1-.4,1.51,1.51,0,0,1-.39-1.09v-6a.38.38,0,0,0-.07-.26.29.29,0,0,0-.23-.08H29.69a.33.33,0,0,0-.37.37V70a2.71,2.71,0,0,0,.76,2,2.66,2.66,0,0,0,2,.75,3.76,3.76,0,0,0,1.55-.33,5.59,5.59,0,0,0,1.54-1.1s.09-.06.12-.05.05,0,.05.11v.93q0,.26.25.26h1.72c.16,0,.25-.09.25-.28l0-8.69c0-.22-.1-.33-.32-.33H35.66c-.27,0-.4.12-.4.35v6.25A3.23,3.23,0,0,1,33,71.12M26.15,59.83c0-.16-.08-.25-.23-.25H24.3c-.15,0-.23.09-.23.28v1.6a.31.31,0,0,0,.06.22.34.34,0,0,0,.24.06h1.39a.49.49,0,0,0,.3-.07.3.3,0,0,0,.09-.24Zm-3.23,0c0-.16-.08-.25-.23-.25H21.07c-.15,0-.23.09-.23.28v1.6a.24.24,0,0,0,.3.28h1.4a.45.45,0,0,0,.28-.07.3.3,0,0,0,.09-.24Zm2.25,8.53v1.25a1.43,1.43,0,0,1-.67,1.07,2.44,2.44,0,0,1-1.6.56,1.76,1.76,0,0,1-1.15-.35,1.16,1.16,0,0,1-.43-.95,1.42,1.42,0,0,1,.82-1.27,4.79,4.79,0,0,1,2-.55l.72-.05a.26.26,0,0,1,.2.07.34.34,0,0,1,.06.23m-.32,3.28a.58.58,0,0,1,.23-.14c.07,0,.11.05.12.16l0,.53a.81.81,0,0,0,.1.32.25.25,0,0,0,.23.11H27a.29.29,0,0,0,.24-.08.46.46,0,0,0,.06-.27V66.08a2.69,2.69,0,0,0-.92-2.18,4.45,4.45,0,0,0-2.89-.77,5.72,5.72,0,0,0-2.56.52,3.12,3.12,0,0,0-1.5,1.5.55.55,0,0,0-.07.23.16.16,0,0,0,.14.16L21,65.9l.14,0a.16.16,0,0,0,.11,0l.1-.11a2.29,2.29,0,0,1,2.06-1.16A1.8,1.8,0,0,1,24.7,65a1.56,1.56,0,0,1,.47,1.2v.4c0,.15-.09.24-.28.26L24,67a7,7,0,0,0-3.63.95,2.65,2.65,0,0,0-1.3,2.32,2.39,2.39,0,0,0,.78,1.85,3,3,0,0,0,2.11.71,4.09,4.09,0,0,0,2.88-1.14m-12,1H14.4q.4,0,.4-.35V66.89a1.27,1.27,0,0,1,.32-.82,2.46,2.46,0,0,1,.83-.64,2.17,2.17,0,0,1,1-.25,4.49,4.49,0,0,1,1.09.12c.15,0,.23,0,.23-.21V63.41c0-.19-.21-.28-.63-.28a2.7,2.7,0,0,0-1.37.41,4.61,4.61,0,0,0-1.28,1.15c-.06.06-.11.09-.14.09s-.09,0-.09-.14V63.57q0-.26-.25-.26h-1.7c-.16,0-.25.1-.25.3v8.69a.28.28,0,0,0,.32.32m-2.07-.37-4.3-7.8a.42.42,0,0,1-.05-.18.28.28,0,0,1,.07-.18l3.62-4.16a.22.22,0,0,0,.07-.16.16.16,0,0,0-.09-.14.4.4,0,0,0-.21-.05H8.08a.66.66,0,0,0-.31.05.67.67,0,0,0-.2.19L2.79,65.57c-.06.06-.1.09-.12.09s-.07-.05-.07-.16V59.84c0-.17-.08-.26-.25-.26H.25a.23.23,0,0,0-.18.08.3.3,0,0,0-.07.2V72.29a.32.32,0,0,0,.08.25.42.42,0,0,0,.27.07H2.19q.4,0,.4-.35V68.94a.47.47,0,0,1,.12-.35l1.72-2c.07-.09.13-.14.18-.14a.15.15,0,0,1,.12.09l3.2,5.86a.43.43,0,0,0,.44.23h2.21c.15,0,.23-.06.23-.19a.42.42,0,0,0-.05-.18"/><path class="cls-1" d="M71.3,43.36c-5,6-13.42,5.57-15.94,5.06l3-11.34v0l16.51-4.79c-.12,4.6-1.32,8.31-3.62,11M43.37,35.88A15.21,15.21,0,0,1,44,28.43L56.53,41.2l-1.88,7c-2.44-.82-9.92-4.69-11.27-12.35m8.26-19.37,7.6,14.6-2.48,9.25L44.32,27.64a35.55,35.55,0,0,1,7.31-11.13M66.57,3.71,59.51,30.05,52.16,15.94A96.5,96.5,0,0,1,66.57,3.71m5.39,12-9.2,5.09L67.29,3.9A112.37,112.37,0,0,1,72,15.71m3,15.83L58.62,36.27,62.5,21.8l9.7-5.37a51.24,51.24,0,0,1,2.73,15.11m4.5-.53-.21-.71-3.49,1A52,52,0,0,0,72.89,16l6.23-3.44L78.75,12l-6.1,3.37A118.7,118.7,0,0,0,67.59,2.77L68.29.19,67.57,0l-.69,2.58a101.32,101.32,0,0,0-15.1,12.62l-1.24-2.39-.66.34,1.36,2.62A36.39,36.39,0,0,0,43.71,27l-4.29-4.39-.53.52,4.54,4.64A16.27,16.27,0,0,0,42.64,36c1.42,8,9.28,12.09,11.81,12.94l-1.22,4.57.72.19,1.23-4.57c2.61.53,11.45,1,16.7-5.3,2.48-3,3.76-6.89,3.86-11.76Z"/></svg>